<?xml version="1.0" encoding="UTF-8"?>
<!DOCTYPE svg PUBLIC "-//W3C//DTD SVG 1.1//EN" "http://www.w3.org/Graphics/SVG/1.1/DTD/svg11.dtd">
<!-- Creator: CorelDRAW 2017 -->
<svg xmlns="http://www.w3.org/2000/svg" xml:space="preserve" width="38px" height="44px" version="1.1" style="shape-rendering:geometricPrecision; text-rendering:geometricPrecision; image-rendering:optimizeQuality; fill-rule:evenodd; clip-rule:evenodd"
viewBox="0 0 0.91 1.04"
 xmlns:xlink="http://www.w3.org/1999/xlink">
 <defs>
  <style type="text/css">
   <![CDATA[
    .fil1 {fill:#33CC66}
    .fil0 {fill:white}
   ]]>
  </style>
 </defs>
 <g id="Camada_x0020_1">
  <metadata id="CorelCorpID_0Corel-Layer"/>
  <g id="_2856776460928">
   <path class="fil0" d="M0.45 0c0.25,0 0.46,0.2 0.46,0.45 0,0.29 -0.27,0.41 -0.44,0.58 -0.01,0.01 -0.02,0.02 -0.03,0.01 -0.17,-0.18 -0.44,-0.3 -0.44,-0.59 0,-0.25 0.2,-0.45 0.45,-0.45z"/>
   <circle class="fil1" cx="0.45" cy="0.45" r="0.38"/>
   <path class="fil0" d="M0.41 0.69c-0.04,0 -0.15,0 -0.19,-0.02 -0.03,-0.01 -0.03,-0.03 -0.03,-0.06 0.01,-0.08 0.06,-0.12 0.13,-0.15 0.01,-0.01 0.02,-0.02 0.03,-0.02 0.01,0 0.01,-0.01 0.02,-0.01 0,0 0,0 0,0 -0.01,-0.01 -0.01,-0.02 -0.01,-0.02 -0.01,-0.01 -0.01,-0.01 -0.01,-0.01 0,-0.01 -0.01,-0.02 -0.01,-0.02 -0.01,-0.02 -0.02,-0.03 -0.02,-0.04 0,-0.01 0,-0.02 0,-0.03 0,-0.02 0,-0.02 0.01,-0.03 0,-0.03 0,-0.07 0.02,-0.1 0.03,-0.04 0.06,-0.05 0.1,-0.05 0.05,0 0.08,0.01 0.1,0.05 0.03,0.03 0.03,0.07 0.03,0.1 0,0.01 0.01,0.01 0.01,0.03 0,0.01 0,0.02 0,0.03 -0.01,0.01 -0.01,0.02 -0.02,0.04 0,0 -0.01,0.01 -0.01,0.02 -0.01,0 -0.01,0 -0.01,0.01 0,0 0,0.01 -0.01,0.02 0,0 0,0 0,0 0.01,0 0.01,0.01 0.02,0.01 0.01,0 0.02,0.01 0.03,0.02 0.07,0.03 0.12,0.07 0.13,0.15 0,0.03 0,0.05 -0.03,0.06 -0.04,0.02 -0.15,0.02 -0.19,0.02l0 0c0,0.02 -0.02,0.04 -0.04,0.04 -0.03,0 -0.04,-0.02 -0.04,-0.04l-0.01 0zm0.02 -0.24c0.02,0 0.03,0 0.05,0 0,0.01 0,0.01 0,0.02 -0.02,0.01 -0.03,0.01 -0.05,0 0,-0.01 0,-0.01 0,-0.02zm0.09 0.15l0 0c0,0.02 -0.01,0.03 -0.02,0.03l-0.02 0 0 0.06c0,0.01 -0.01,0.02 -0.02,0.02l0 0c-0.02,0 -0.03,-0.01 -0.03,-0.02l0 -0.06 -0.02 0c-0.01,0 -0.02,-0.01 -0.02,-0.03l0 0c0,-0.01 0.01,-0.02 0.02,-0.02l0.02 0 0 -0.02c0,-0.01 0.01,-0.02 0.03,-0.02l0 0c0.01,0 0.02,0.01 0.02,0.02l0 0.02 0.02 0c0.01,0 0.02,0.01 0.02,0.02zm-0.07 -0.45c-0.03,0 -0.06,0.01 -0.08,0.04 -0.02,0.03 -0.02,0.06 -0.02,0.1 -0.01,0.01 -0.01,0.01 -0.01,0.02 0,0.01 0,0.02 0,0.02 0.01,0.03 0.02,0.04 0.03,0.05 0,0.01 0,0.02 0.01,0.04l0.01 0.02c0,0 -0.02,0.01 -0.03,0.02 -0.01,0 -0.02,0.01 -0.04,0.01 -0.05,0.03 -0.1,0.07 -0.11,0.14 -0.01,0.02 0,0.04 0.02,0.05 0.02,0.01 0.1,0.01 0.18,0.01l0.01 0 0 -0.03 -0.01 0c-0.02,0 -0.04,-0.01 -0.04,-0.04 0,-0.02 0.02,-0.04 0.04,-0.04l0.01 0 0 0c0,-0.02 0.01,-0.04 0.04,-0.04 0.02,0 0.04,0.02 0.04,0.04l0 0 0 0c0.02,0 0.04,0.02 0.04,0.04 0,0.03 -0.02,0.04 -0.04,0.04l0 0 0 0.04 0 -0.01c0.08,0 0.16,0 0.18,-0.01 0.02,-0.01 0.02,-0.03 0.02,-0.05 -0.01,-0.07 -0.06,-0.11 -0.12,-0.14 -0.01,0 -0.02,-0.01 -0.03,-0.01 -0.01,-0.01 -0.03,-0.02 -0.04,-0.02l0.01 -0.02c0.02,-0.02 0.02,-0.03 0.02,-0.04 0.01,-0.01 0.02,-0.02 0.03,-0.05 0,0 0,-0.01 0,-0.02 0,-0.01 0,-0.01 -0.01,-0.02 0,-0.04 0,-0.07 -0.02,-0.1 -0.02,-0.03 -0.05,-0.04 -0.09,-0.04z"/>
  </g>
 </g>
</svg>
