<?xml version="1.0" encoding="UTF-8"?>
<!DOCTYPE svg PUBLIC "-//W3C//DTD SVG 1.1//EN" "http://www.w3.org/Graphics/SVG/1.1/DTD/svg11.dtd">
<!-- Creator: CorelDRAW 2017 -->
<svg xmlns="http://www.w3.org/2000/svg" xml:space="preserve" width="1337px" height="1119px" version="1.1" style="shape-rendering:geometricPrecision; text-rendering:geometricPrecision; image-rendering:optimizeQuality; fill-rule:evenodd; clip-rule:evenodd"
viewBox="0 0 1337 1119.7"
 xmlns:xlink="http://www.w3.org/1999/xlink">
 <defs>
  <style type="text/css">
   <![CDATA[
    .fil11 {fill:none}
    .fil10 {fill:#E4CA9E}
    .fil4 {fill:#D2AE6D}
    .fil3 {fill:#FFCC29}
    .fil1 {fill:#F58634}
    .fil5 {fill:#72C7F0}
    .fil6 {fill:#38B5E8}
    .fil8 {fill:#1EBD61}
    .fil9 {fill:#33CC66}
    .fil12 {fill:#DE2509}
    .fil0 {fill:#E1E2E3}
    .fil7 {fill:#F9A531}
    .fil2 {fill:white}
   ]]>
  </style>
    <clipPath id="id0">
     <path d="M1286.01 993.73l-385.13 -40.64 -348.95 123.13 -427.33 -46.11 -78.71 -682.47 -7.45 -66.27 138.5 14.86 279.62 30.14 353.86 -84.55 440.77 7.63 85.81 747.89 -50.99 -3.61z"/>
    </clipPath>
     <clipPath id="id1">
      <path d="M1155.99 980.01l-255.11 -26.92 -76.27 26.92 -705.79 0 -12.69 -110.01 0 -581.37 70.81 7.6 279.62 30.14 353.86 -84.55 440.77 7.63 15.84 138.07 0 592.49 -111.04 0z"/>
     </clipPath>
     <clipPath id="id2">
      <path d="M118.82 980.01l705.79 0 76.27 -26.92 255.11 26.92 111.04 0 0 -592.49 -15.84 -138.07 -440.77 -7.63 -353.86 84.55 -279.62 -30.14 -70.81 -7.6 0 581.37 12.69 110.01z"/>
     </clipPath>
     <clipPath id="id3">
      <path d="M1155.99 980.01l-255.11 -26.92 -76.27 26.92 -705.79 0 -12.69 -110.01 0 -581.37 70.81 7.6 279.62 30.14 353.86 -84.55 440.77 7.63 15.84 138.07 0 592.49 -111.04 0z"/>
     </clipPath>
     <clipPath id="id4">
      <path d="M1286.01 993.73l-385.13 -40.64 -348.95 123.13 -427.33 -46.11 -78.71 -682.47 -7.45 -66.27 138.5 14.86 279.62 30.14 353.86 -84.55 440.77 7.63 85.81 747.89 -50.99 -3.61z"/>
     </clipPath>
 </defs>
 <g id="Camada_x0020_1">
  <metadata id="CorelCorpID_0Corel-Layer"/>
  <g id="_2856646018128">
   <polygon class="fil0" points="38.45,281.37 1337,997.34 1289.5,1037.39 910.27,997.31 562.72,1119.7 401.95,1104.57 83.95,1066.43 0,328.23 "/>
   <polygon class="fil1" points="122.14,445.65 147.38,432.71 129.54,379.18 132.76,378.02 124.71,348.16 114.92,348.6 114.61,348.01 123.65,342.9 121.2,333.78 122.27,333.24 126.09,341.94 134.57,338.24 134.92,338.94 127.71,347.03 138.47,375.8 164.28,367.72 387.65,491.41 458.91,472.44 523.5,543.52 529.25,540.57 550.95,564.14 522.62,590.27 207.84,684.54 184.19,702.88 178,703.83 "/>
   <polygon class="fil2" points="1286.01,993.73 900.88,953.09 551.93,1076.22 124.6,1030.11 45.89,347.64 38.44,281.37 176.94,296.23 456.56,326.37 810.42,241.82 1251.19,249.45 1337,997.34 "/>
   <g style="clip-path:url(#id0)">
    <g>
     <g>
      <path id="1" class="fil3" d="M928.41 902.28l101.42 -425.63c10.94,-7.85 176.81,-64.49 188.77,-63.22l60.58 526.97 -350.77 -38.12z"/>
      <polygon class="fil4" points="887.49,847.74 877.84,907.37 724.78,961.63 512.35,764.94 489.96,659.29 861.01,534.76 "/>
      <polygon class="fil5" points="574.44,349.72 816.57,290.16 1205.33,299.09 1211.96,356.11 943.25,450.39 840.98,482.1 "/>
      <polygon class="fil6" points="574.44,349.72 816.57,290.16 840.98,482.1 "/>
      <polygon class="fil7" points="789.31,507.59 482.75,606.46 464.04,385.24 518.53,374.02 "/>
      <polygon class="fil8" points="545.03,1021.97 511.89,835.93 670.44,980.3 "/>
      <polygon class="fil9" points="522.75,846.79 545.04,1021.97 170.08,983.66 147.67,777.88 368.88,703.72 "/>
      <polygon class="fil10" points="512.34,764.94 421.84,682.85 498.53,656.32 "/>
      <polygon class="fil10" points="887.49,847.74 848.25,539.22 971.96,495.93 "/>
      <polygon class="fil3" points="464.04,385.24 491.78,603.29 321.92,662.99 140.24,723.32 96.5,338.79 "/>
     </g>
    </g>
    <g style="clip-path:url(#id1)">
    </g>
    <g style="clip-path:url(#id2)">
     <image x="106.13" y="42.48" width="1160.9" height="937.53" xlink:href="CONFESSE JÁ - Sem Fundo_Images\CONFESSE JÁ - Sem Fundo_ImgID1.png"/>
    </g>
    <g style="clip-path:url(#id3)">
    </g>
    <g style="clip-path:url(#id4)">
    </g>
   </g>
   <polygon class="fil11" points="1286.01,993.73 900.88,953.09 551.93,1076.22 124.6,1030.11 45.89,347.64 38.44,281.37 176.94,296.23 456.56,326.37 810.42,241.82 1251.19,249.45 1337,997.34 "/>
   <g>
    <g>
     <path class="fil2" d="M1096.39 430.82c65.1,0 117.87,52.77 117.87,117.87 0,74.44 -68.88,104.73 -114.95,150.8 -2.37,2.36 -3.16,2.66 -5.78,0.06 -46.08,-46.09 -115,-76.41 -115,-150.86 0,-65.1 52.77,-117.87 117.86,-117.87z"/>
     <circle class="fil12" cx="1096.39" cy="548.68" r="99.84"/>
     <g>
      <path class="fil2" d="M1091.15 596.09c0,-5.67 0.1,-13.01 0.1,-18.17 0,-5.22 -0.97,-9.15 1.9,-11.76 0.86,-0.79 2.03,-1.23 3.24,-1.23 1.21,0 2.38,0.44 3.24,1.23 2.87,2.61 1.9,6.54 1.9,11.76 0,5.16 0.1,12.5 0.1,18.17l6.39 -0.01c-0.05,-7.4 0.03,-16.93 0.05,-24.49 0.01,-3.85 -0.71,-6.91 -2.93,-9.19 -2.53,-2.6 -5.62,-3.88 -8.63,-3.98l0 -0.01 -0.12 0 -0.12 0 0 0.01c-3,0.1 -6.09,1.38 -8.63,3.98 -2.21,2.28 -2.93,5.34 -2.93,9.19 0.02,7.56 0.1,17.09 0.05,24.49l6.39 0.01z"/>
      <polygon class="fil2" points="1046.65,609.08 1146.32,609.08 1146.32,602.58 1046.46,602.58 "/>
      <path class="fil2" d="M1087.09 530.13l6.33 -0.01c0.21,-5.32 -0.14,-11.01 0.53,-14.33 0.31,-1.53 1.01,-2.5 2.44,-2.54 1.44,0.04 2.13,1.01 2.44,2.54 0.67,3.32 0.33,9.01 0.53,14.33l6.33 0.01c0,-3.33 0.11,-13.66 -0.43,-16.32 -0.93,-4.59 -4.81,-6.96 -8.75,-7.06l0 0c-0.04,0 -0.08,0 -0.12,0 -0.04,0 -0.08,0 -0.12,0l0 0c-3.93,0.1 -7.82,2.47 -8.75,7.06 -0.54,2.66 -0.43,12.99 -0.43,16.32z"/>
      <path class="fil2" d="M1034.07 609.07l6.46 -0.03 0.04 -51.84 22.28 0.03 0.04 38.82 6.41 0.05 0.04 -71.18 -8.49 -2.83c2.97,-2.76 35.16,-32.7 35.26,-32.6l0.28 -0.25 0.29 0.25c0.09,-0.1 32.28,29.84 35.26,32.6l-8.5 2.83 0.05 71.18 6.41 -0.05 0.03 -38.82 22.28 -0.03 0.04 51.84 6.47 0.03 0.03 -51.87 8.3 -0.01 0.01 -6.47 -37.12 -0.03 0.01 -20.53c2.01,-0.67 11.82,-4.39 14.22,-5.18 -4.07,-4.24 -37.66,-33.55 -44.06,-41.66 0,-2.7 -0.05,-5.16 -0.16,-9.16l5.42 -0.14 -0.08 -6.39 -5.3 -0.16 -0.06 -5.24 -0.14 0 0 -0.01c-0.55,0 -1.89,0 -3.4,0.01 -1.51,-0.01 -2.84,-0.01 -3.4,-0.01l0 0.01 -0.14 0 -0.05 5.24 -5.31 0.16 -0.08 6.39 5.42 0.14c-0.1,4 -0.16,6.46 -0.16,9.16 -6.4,8.11 -39.99,37.42 -44.06,41.66 2.4,0.79 12.21,4.51 14.22,5.18l0.02 20.53 -37.13 0.03 0.02 6.47 8.29 0.01 0.04 51.87z"/>
     </g>
    </g>
    <g>
     <path class="fil2" d="M358.78 672.14c70.02,0 126.77,56.76 126.77,126.77 0,80.08 -74.08,112.64 -123.63,162.19 -2.54,2.55 -3.4,2.87 -6.21,0.07 -49.56,-49.57 -123.69,-82.18 -123.69,-162.26 0,-70.01 56.75,-126.77 126.76,-126.77z"/>
     <circle class="fil7" cx="358.79" cy="798.91" r="107.38"/>
     <g>
      <path class="fil2" d="M353.15 849.9c0,-6.1 0.11,-13.99 0.11,-19.54 0,-5.62 -1.04,-9.84 2.04,-12.65 0.93,-0.85 2.18,-1.32 3.49,-1.33 1.3,0.01 2.55,0.48 3.48,1.33 3.08,2.81 2.04,7.03 2.04,12.65 0,5.55 0.11,13.44 0.11,19.54l6.87 -0.02c-0.05,-7.95 0.04,-18.21 0.06,-26.33 0,-4.14 -0.77,-7.43 -3.16,-9.88 -2.72,-2.8 -6.04,-4.18 -9.28,-4.29l0 -0.01 -0.12 0.01 -0.13 -0.01 0 0.01c-3.24,0.11 -6.56,1.49 -9.29,4.29 -2.38,2.45 -3.15,5.74 -3.15,9.88 0.02,8.12 0.11,18.38 0.06,26.33l6.87 0.02z"/>
      <polygon class="fil2" points="305.28,863.87 412.48,863.87 412.48,856.87 305.09,856.87 "/>
      <path class="fil2" d="M348.78 778.95l6.81 -0.01c0.22,-5.71 -0.15,-11.84 0.57,-15.4 0.34,-1.65 1.08,-2.69 2.63,-2.74 1.54,0.05 2.28,1.09 2.62,2.74 0.72,3.56 0.35,9.69 0.57,15.4l6.81 0.01c0,-3.57 0.12,-14.69 -0.46,-17.55 -1.01,-4.93 -5.18,-7.48 -9.42,-7.58l0 -0.01c-0.04,0 -0.08,0 -0.12,0 -0.05,0 -0.09,0 -0.13,0l0 0.01c-4.24,0.1 -8.41,2.65 -9.42,7.58 -0.58,2.86 -0.46,13.98 -0.46,17.55z"/>
      <path class="fil2" d="M291.75 863.86l6.96 -0.03 0.04 -55.75 23.96 0.02 0.04 41.75 6.89 0.05 0.05 -76.54 -9.13 -3.05c3.2,-2.97 37.82,-35.16 37.92,-35.06l0.31 -0.27 0.3 0.27c0.1,-0.1 34.72,32.09 37.92,35.06l-9.14 3.05 0.06 76.54 6.89 -0.05 0.04 -41.75 23.96 -0.02 0.04 55.75 6.96 0.03 0.04 -55.79 8.91 -0.01 0.02 -6.95 -39.93 -0.05 0.02 -22.07c2.16,-0.72 12.71,-4.73 15.29,-5.57 -4.37,-4.56 -40.5,-36.09 -47.39,-44.81 0,-2.9 -0.05,-5.54 -0.17,-9.85l5.83 -0.14 -0.08 -6.88 -5.71 -0.17 -0.06 -5.64 -0.15 0 0 -0.01c-0.59,0 -2.03,0 -3.65,0.01 -1.63,-0.01 -3.06,-0.01 -3.66,-0.01l0 0.01 -0.15 0 -0.06 5.64 -5.71 0.17 -0.08 6.88 5.83 0.14c-0.12,4.31 -0.17,6.95 -0.17,9.85 -6.89,8.72 -43.02,40.25 -47.39,44.81 2.58,0.84 13.13,4.85 15.29,5.57l0.02 22.07 -39.93 0.05 0.02 6.95 8.91 0.01 0.04 55.79z"/>
     </g>
    </g>
    <g>
     <path class="fil2" d="M668.49 0c166.79,0 301.98,135.19 301.98,301.98 0,190.74 -176.47,268.32 -294.5,386.35 -6.06,6.06 -8.1,6.83 -14.8,0.15 -118.06,-118.06 -294.64,-195.75 -294.64,-386.5 0,-166.79 135.19,-301.98 301.96,-301.98z"/>
     <circle class="fil9" cx="668.5" cy="301.98" r="255.79"/>
     <g>
      <path class="fil2" d="M655.07 423.43c0,-14.52 0.26,-33.33 0.26,-46.55 0,-13.38 -2.48,-23.44 4.86,-30.14 2.21,-2.02 5.2,-3.13 8.31,-3.15 3.1,0.02 6.09,1.13 8.3,3.15 7.35,6.7 4.86,16.76 4.86,30.14 0,13.22 0.27,32.03 0.27,46.55l16.36 -0.03c-0.12,-18.96 0.08,-43.38 0.13,-62.74 0.02,-9.87 -1.83,-17.7 -7.51,-23.53 -6.49,-6.67 -14.4,-9.95 -22.11,-10.22l0 -0.02 -0.3 0.01 -0.31 -0.01 0 0.02c-7.7,0.27 -15.62,3.55 -22.11,10.22 -5.68,5.83 -7.52,13.66 -7.5,23.53 0.04,19.36 0.24,43.78 0.12,62.74l16.37 0.03z"/>
      <polygon class="fil2" points="541.05,456.72 796.41,456.71 796.41,440.05 540.58,440.05 "/>
      <path class="fil2" d="M644.67 254.43l16.22 -0.02c0.52,-13.61 -0.36,-28.21 1.36,-36.7 0.79,-3.94 2.57,-6.41 6.25,-6.53 3.67,0.12 5.45,2.59 6.24,6.53 1.72,8.49 0.84,23.09 1.36,36.7l16.23 0.02c0,-8.51 0.28,-34.99 -1.1,-41.8 -2.39,-11.75 -12.34,-17.83 -22.43,-18.08l0 -0.01c-0.1,0 -0.2,0 -0.3,0.01 -0.11,-0.01 -0.21,-0.01 -0.31,-0.01l0 0.01c-10.08,0.25 -20.04,6.33 -22.43,18.08 -1.38,6.81 -1.09,33.29 -1.09,41.8z"/>
      <path class="fil2" d="M508.82 456.69l16.57 -0.08 0.09 -132.8 57.09 0.05 0.09 99.46 16.42 0.12 0.12 -182.34 -21.77 -7.26c7.63,-7.07 90.1,-83.76 90.34,-83.51l0.73 -0.66 0.73 0.66c0.23,-0.25 82.7,76.44 90.33,83.51l-21.77 7.26 0.13 182.34 16.41 -0.12 0.09 -99.46 57.09 -0.05 0.09 132.8 16.57 0.08 0.1 -132.9 21.24 -0.02 0.05 -16.57 -95.12 -0.1 0.04 -52.58c5.14,-1.72 30.28,-11.26 36.43,-13.27 -10.42,-10.87 -96.49,-85.96 -112.89,-106.74 0,-6.9 -0.14,-13.2 -0.4,-23.47l13.88 -0.34 -0.2 -16.39 -13.59 -0.39 -0.15 -13.44 -0.35 0 0 -0.01c-1.42,0 -4.84,0 -8.71,0 -3.88,0 -7.29,0 -8.72,0l0 0.01 -0.35 0 -0.15 13.44 -13.59 0.39 -0.2 16.39 13.89 0.34c-0.27,10.27 -0.41,16.57 -0.41,23.47 -16.4,20.78 -102.47,95.87 -112.89,106.74 6.15,2.01 31.29,11.55 36.43,13.27l0.05 52.58 -95.12 0.1 0.04 16.57 21.24 0.02 0.1 132.9z"/>
     </g>
    </g>
   </g>
  </g>
 </g>
</svg>
