<?xml version="1.0" encoding="UTF-8"?>
<!DOCTYPE svg PUBLIC "-//W3C//DTD SVG 1.1//EN" "http://www.w3.org/Graphics/SVG/1.1/DTD/svg11.dtd">
<!-- Creator: CorelDRAW 2017 -->
<svg xmlns="http://www.w3.org/2000/svg" xml:space="preserve" width="2362px" height="2362px" version="1.1" style="shape-rendering:geometricPrecision; text-rendering:geometricPrecision; image-rendering:optimizeQuality; fill-rule:evenodd; clip-rule:evenodd"
viewBox="0 0 2362 2362"
 xmlns:xlink="http://www.w3.org/1999/xlink">
 <defs>
  <style type="text/css">
   <![CDATA[
    .fil12 {fill:none}
    .fil11 {fill:#E4CA9E}
    .fil5 {fill:#D2AE6D}
    .fil4 {fill:#FFCC29}
    .fil2 {fill:#F58634}
    .fil6 {fill:#72C7F0}
    .fil7 {fill:#38B5E8}
    .fil9 {fill:#1EBD61}
    .fil10 {fill:#33CC66}
    .fil13 {fill:#DE2509}
    .fil1 {fill:#E1E2E3}
    .fil8 {fill:#F9A531}
    .fil3 {fill:white}
    .fil0 {fill:url(#id5)}
   ]]>
  </style>
    <clipPath id="id0">
     <path d="M1798.26 1614.7l-384.97 -40.62 -348.81 123.08 -427.16 -46.09 -78.68 -682.2 -7.44 -66.24 138.44 14.85 279.5 30.14 353.72 -84.52 440.59 7.62 85.78 747.58 -50.97 -3.6z"/>
    </clipPath>
     <clipPath id="id1">
      <path d="M1668.29 1600.98l-255 -26.9 -76.25 26.9 -705.5 0 -12.68 -109.96 0 -581.13 70.78 7.59 279.5 30.14 353.72 -84.52 440.59 7.62 15.84 138.02 0 592.24 -111 0z"/>
     </clipPath>
     <clipPath id="id2">
      <path d="M631.54 1600.98l705.5 0 76.25 -26.9 255 26.9 111 0 0 -592.24 -15.84 -138.02 -440.59 -7.62 -353.72 84.52 -279.5 -30.14 -70.78 -7.59 0 581.13 12.68 109.96z"/>
     </clipPath>
     <clipPath id="id3">
      <path d="M1668.29 1600.98l-255 -26.9 -76.25 26.9 -705.5 0 -12.68 -109.96 0 -581.13 70.78 7.59 279.5 30.14 353.72 -84.52 440.59 7.62 15.84 138.02 0 592.24 -111 0z"/>
     </clipPath>
     <clipPath id="id4">
      <path d="M1798.26 1614.7l-384.97 -40.62 -348.81 123.08 -427.16 -46.09 -78.68 -682.2 -7.44 -66.24 138.44 14.85 279.5 30.14 353.72 -84.52 440.59 7.62 85.78 747.58 -50.97 -3.6z"/>
     </clipPath>
  <linearGradient id="id5" gradientUnits="userSpaceOnUse" x1="1250.7" y1="238.1" x2="1250.71" y2="2162.54">
   <stop offset="0" style="stop-opacity:1; stop-color:#2858BE"/>
   <stop offset="1" style="stop-opacity:1; stop-color:#1ECAD6"/>
  </linearGradient>
 </defs>
 <g id="Camada_x0020_1">
  <metadata id="CorelCorpID_0Corel-Layer"/>
  <rect class="fil0" width="2362" height="2362"/>
  <g id="_2856249456416">
   <polygon class="fil1" points="551.2,902.63 1849.23,1618.3 1801.74,1658.34 1422.67,1618.27 1075.26,1740.62 914.56,1725.5 596.69,1687.38 512.77,949.47 "/>
   <polygon class="fil2" points="634.86,1066.85 660.09,1053.91 642.26,1000.4 645.48,999.25 637.43,969.39 627.65,969.83 627.33,969.24 636.37,964.14 633.93,955.02 634.99,954.47 638.81,963.18 647.28,959.48 647.64,960.17 640.43,968.27 651.19,997.02 676.98,988.94 900.26,1112.58 971.5,1093.62 1036.06,1164.67 1041.81,1161.72 1063.5,1185.28 1035.18,1211.4 720.53,1305.63 696.89,1323.96 690.7,1324.91 "/>
   <polygon class="fil3" points="1798.26,1614.7 1413.29,1574.08 1064.48,1697.16 637.32,1651.07 558.64,968.87 551.2,902.63 689.64,917.48 969.14,947.62 1322.86,863.1 1763.45,870.72 1849.23,1618.3 "/>
   <g style="clip-path:url(#id0)">
    <g>
     <g>
      <path id="1" class="fil4" d="M1440.81 1523.29l101.38 -425.45c10.93,-7.86 176.73,-64.47 188.69,-63.2l60.55 526.76 -350.62 -38.11z"/>
      <polygon class="fil5" points="1399.9,1468.76 1390.25,1528.38 1237.26,1582.61 1024.91,1386.01 1002.53,1280.39 1373.43,1155.91 "/>
      <polygon class="fil6" points="1086.97,970.95 1329.01,911.41 1717.61,920.35 1724.24,977.34 1455.63,1071.58 1353.41,1103.28 "/>
      <polygon class="fil7" points="1086.97,970.95 1329.01,911.41 1353.41,1103.28 "/>
      <polygon class="fil8" points="1301.76,1128.76 995.33,1227.59 976.63,1006.46 1031.09,995.24 "/>
      <polygon class="fil9" points="1057.58,1642.92 1024.45,1456.96 1182.93,1601.28 "/>
      <polygon class="fil10" points="1035.31,1467.82 1057.59,1642.93 682.78,1604.63 660.38,1398.94 881.5,1324.81 "/>
      <polygon class="fil11" points="1024.91,1386.01 934.44,1303.94 1011.1,1277.43 "/>
      <polygon class="fil11" points="1399.9,1468.76 1360.67,1160.38 1484.33,1117.1 "/>
      <polygon class="fil4" points="976.63,1006.46 1004.35,1224.42 834.56,1284.09 652.95,1344.4 609.23,960.03 "/>
     </g>
    </g>
    <g style="clip-path:url(#id1)">
    </g>
    <g style="clip-path:url(#id2)">
     <image x="618.86" y="663.84" width="1160.43" height="937.14" xlink:href="CONFESSE JÁ_Images\CONFESSE JÁ_ImgID1.png"/>
    </g>
    <g style="clip-path:url(#id3)">
    </g>
    <g style="clip-path:url(#id4)">
    </g>
   </g>
   <polygon class="fil12" points="1798.26,1614.7 1413.29,1574.08 1064.48,1697.16 637.32,1651.07 558.64,968.87 551.2,902.63 689.64,917.48 969.14,947.62 1322.86,863.1 1763.45,870.72 1849.23,1618.3 "/>
   <g>
    <g>
     <path class="fil3" d="M1608.72 1052.01c65.07,0 117.82,52.75 117.82,117.83 0,74.42 -68.86,104.68 -114.91,150.74 -2.36,2.36 -3.16,2.66 -5.77,0.06 -46.06,-46.07 -114.96,-76.38 -114.96,-150.8 0,-65.08 52.75,-117.83 117.82,-117.83z"/>
     <circle class="fil13" cx="1608.72" cy="1169.83" r="99.8"/>
     <g>
      <path class="fil3" d="M1603.48 1217.22c0,-5.66 0.1,-13 0.1,-18.16 0,-5.22 -0.97,-9.14 1.9,-11.76 0.86,-0.79 2.03,-1.22 3.24,-1.23 1.21,0.01 2.38,0.44 3.24,1.23 2.86,2.62 1.9,6.54 1.9,11.76 0,5.16 0.1,12.5 0.1,18.16l6.38 -0.01c-0.05,-7.4 0.03,-16.93 0.05,-24.48 0.01,-3.85 -0.71,-6.9 -2.93,-9.18 -2.53,-2.6 -5.62,-3.88 -8.63,-3.99l0 0 -0.11 0 -0.12 0 0 0c-3.01,0.11 -6.1,1.39 -8.63,3.99 -2.21,2.28 -2.93,5.33 -2.93,9.18 0.02,7.55 0.1,17.08 0.05,24.48l6.39 0.01z"/>
      <polygon class="fil3" points="1558.99,1230.21 1658.62,1230.21 1658.62,1223.7 1558.81,1223.7 "/>
      <path class="fil3" d="M1599.42 1151.29l6.33 -0.01c0.2,-5.31 -0.14,-11.01 0.53,-14.32 0.31,-1.54 1,-2.51 2.44,-2.55 1.43,0.04 2.13,1.01 2.43,2.55 0.68,3.31 0.33,9.01 0.53,14.32l6.33 0.01c0,-3.33 0.12,-13.66 -0.42,-16.32 -0.94,-4.58 -4.82,-6.95 -8.76,-7.05l0 0c-0.03,0 -0.07,0 -0.11,0 -0.04,0 -0.08,0 -0.12,0l0 0c-3.94,0.1 -7.82,2.47 -8.75,7.05 -0.54,2.66 -0.43,12.99 -0.43,16.32z"/>
      <path class="fil3" d="M1546.42 1230.2l6.46 -0.03 0.04 -51.82 22.27 0.02 0.04 38.81 6.4 0.05 0.05 -71.15 -8.49 -2.83c2.97,-2.76 35.15,-32.68 35.24,-32.58l0.29 -0.26 0.28 0.26c0.09,-0.1 32.27,29.82 35.25,32.58l-8.5 2.83 0.05 71.15 6.41 -0.05 0.03 -38.81 22.28 -0.02 0.03 51.82 6.47 0.03 0.03 -51.85 8.29 -0.01 0.02 -6.47 -37.11 -0.03 0.02 -20.52c2,-0.67 11.81,-4.39 14.21,-5.18 -4.07,-4.24 -37.65,-33.54 -44.05,-41.65 0,-2.69 -0.05,-5.15 -0.15,-9.15l5.41 -0.13 -0.07 -6.4 -5.31 -0.15 -0.06 -5.24 -0.13 -0.01 0 0c-0.56,0 -1.89,0 -3.4,0 -1.51,0 -2.85,0 -3.4,0l0 0 -0.14 0.01 -0.06 5.24 -5.3 0.15 -0.08 6.4 5.42 0.13c-0.1,4 -0.16,6.46 -0.16,9.15 -6.4,8.11 -39.98,37.41 -44.05,41.65 2.4,0.79 12.21,4.51 14.22,5.18l0.02 20.52 -37.12 0.03 0.02 6.47 8.29 0.01 0.04 51.85z"/>
     </g>
    </g>
    <g>
     <path class="fil3" d="M871.41 1293.25c69.99,0 126.72,56.73 126.72,126.71 0,80.04 -74.05,112.6 -123.58,162.13 -2.55,2.54 -3.4,2.86 -6.21,0.06 -49.54,-49.54 -123.64,-82.14 -123.64,-162.19 0,-69.98 56.73,-126.71 126.71,-126.71z"/>
     <circle class="fil8" cx="871.41" cy="1419.96" r="107.34"/>
     <g>
      <path class="fil3" d="M865.78 1470.92c0,-6.09 0.11,-13.98 0.11,-19.53 0,-5.61 -1.05,-9.83 2.04,-12.64 0.92,-0.85 2.18,-1.32 3.48,-1.33 1.31,0.01 2.56,0.48 3.49,1.33 3.08,2.81 2.04,7.03 2.04,12.64 0,5.55 0.11,13.44 0.11,19.53l6.87 -0.01c-0.06,-7.95 0.03,-18.2 0.05,-26.32 0,-4.14 -0.77,-7.43 -3.15,-9.88 -2.73,-2.8 -6.05,-4.17 -9.28,-4.29l0 0 -0.13 0 -0.13 0 0 0c-3.23,0.12 -6.55,1.49 -9.28,4.29 -2.38,2.45 -3.15,5.74 -3.14,9.88 0.01,8.12 0.1,18.37 0.05,26.32l6.87 0.01z"/>
      <polygon class="fil3" points="817.93,1484.9 925.09,1484.89 925.09,1477.9 817.74,1477.9 "/>
      <path class="fil3" d="M861.41 1400.01l6.81 -0.01c0.22,-5.71 -0.15,-11.84 0.57,-15.4 0.33,-1.65 1.08,-2.69 2.62,-2.74 1.54,0.05 2.29,1.09 2.62,2.74 0.72,3.56 0.35,9.69 0.57,15.4l6.81 0.01c0,-3.57 0.12,-14.68 -0.46,-17.54 -1,-4.93 -5.18,-7.48 -9.41,-7.59l0 0c-0.04,0 -0.09,0 -0.13,0 -0.04,0 -0.08,0 -0.13,0l0 0c-4.23,0.11 -8.4,2.66 -9.41,7.59 -0.58,2.86 -0.46,13.97 -0.46,17.54z"/>
      <path class="fil3" d="M804.41 1484.88l6.95 -0.03 0.04 -55.73 23.96 0.03 0.03 41.73 6.89 0.05 0.05 -76.51 -9.13 -3.05c3.2,-2.97 37.81,-35.15 37.9,-35.04l0.31 -0.28 0.31 0.28c0.1,-0.11 34.7,32.07 37.91,35.04l-9.14 3.05 0.05 76.51 6.89 -0.05 0.04 -41.73 23.95 -0.03 0.04 55.73 6.96 0.03 0.04 -55.76 8.91 -0.01 0.02 -6.96 -39.92 -0.04 0.02 -22.06c2.16,-0.72 12.71,-4.73 15.29,-5.57 -4.37,-4.56 -40.49,-36.07 -47.37,-44.79 0,-2.9 -0.06,-5.54 -0.17,-9.85l5.83 -0.14 -0.09 -6.88 -5.7 -0.16 -0.07 -5.64 -0.14 0 0 -0.01c-0.6,0 -2.03,0 -3.66,0 -1.62,0 -3.06,0 -3.66,0l0 0.01 -0.14 0 -0.07 5.64 -5.7 0.16 -0.08 6.88 5.83 0.14c-0.12,4.31 -0.18,6.95 -0.18,9.85 -6.88,8.72 -42.99,40.23 -47.37,44.79 2.58,0.84 13.13,4.85 15.29,5.57l0.02 22.06 -39.92 0.04 0.02 6.96 8.92 0.01 0.04 55.76z"/>
     </g>
    </g>
    <g>
     <path class="fil3" d="M1180.99 621.37c166.72,0 301.86,135.14 301.86,301.86 0,190.66 -176.4,268.21 -294.38,386.19 -6.06,6.06 -8.1,6.84 -14.79,0.16 -118.02,-118.02 -294.53,-195.68 -294.53,-386.35 0,-166.72 135.14,-301.86 301.84,-301.86z"/>
     <circle class="fil10" cx="1181" cy="923.23" r="255.69"/>
     <g>
      <path class="fil3" d="M1167.57 1044.63c0,-14.51 0.26,-33.32 0.26,-46.53 0,-13.38 -2.48,-23.43 4.86,-30.12 2.21,-2.02 5.2,-3.13 8.31,-3.15 3.1,0.02 6.09,1.13 8.3,3.15 7.34,6.69 4.86,16.74 4.86,30.12 0,13.21 0.26,32.02 0.26,46.53l16.36 -0.03c-0.13,-18.95 0.08,-43.36 0.12,-62.71 0.03,-9.86 -1.82,-17.69 -7.5,-23.53 -6.49,-6.66 -14.4,-9.94 -22.1,-10.21l0 -0.02 -0.3 0.01 -0.31 -0.01 0 0.02c-7.7,0.27 -15.61,3.55 -22.1,10.21 -5.68,5.84 -7.52,13.67 -7.5,23.53 0.04,19.35 0.25,43.76 0.12,62.71l16.36 0.03z"/>
      <polygon class="fil3" points="1053.6,1077.91 1308.86,1077.9 1308.86,1061.24 1053.14,1061.24 "/>
      <path class="fil3" d="M1157.18 875.71l16.21 -0.03c0.53,-13.6 -0.36,-28.2 1.36,-36.69 0.8,-3.93 2.57,-6.41 6.25,-6.52 3.67,0.11 5.45,2.59 6.24,6.52 1.72,8.49 0.84,23.09 1.36,36.69l16.22 0.03c0,-8.52 0.28,-34.99 -1.1,-41.8 -2.39,-11.74 -12.34,-17.82 -22.42,-18.06l0 -0.01c-0.1,0 -0.2,0 -0.3,0 -0.11,0 -0.21,0 -0.31,0l0 0.01c-10.08,0.24 -20.03,6.32 -22.42,18.06 -1.38,6.81 -1.09,33.28 -1.09,41.8z"/>
      <path class="fil3" d="M1021.39 1077.88l16.56 -0.09 0.09 -132.74 57.07 0.06 0.08 99.41 16.42 0.13 0.12 -182.27 -21.76 -7.26c7.63,-7.06 90.06,-83.73 90.3,-83.48l0.73 -0.65 0.73 0.65c0.23,-0.25 82.67,76.42 90.3,83.48l-21.77 7.26 0.13 182.27 16.41 -0.13 0.09 -99.41 57.06 -0.06 0.09 132.74 16.57 0.09 0.09 -132.85 21.24 -0.02 0.04 -16.56 -95.08 -0.1 0.05 -52.56c5.13,-1.71 30.27,-11.25 36.41,-13.26 -10.42,-10.87 -96.45,-85.93 -112.84,-106.7 0,-6.9 -0.14,-13.2 -0.41,-23.46l13.89 -0.34 -0.21 -16.38 -13.59 -0.39 -0.15 -13.44 -0.34 0 0 -0.01c-1.43,0 -4.84,0 -8.71,0 -3.88,0 -7.29,0 -8.72,0l0 0.01 -0.34 0 -0.15 13.44 -13.59 0.39 -0.2 16.38 13.88 0.34c-0.27,10.26 -0.4,16.56 -0.4,23.46 -16.4,20.77 -102.43,95.83 -112.85,106.7 6.15,2.01 31.28,11.55 36.42,13.26l0.04 52.56 -95.08 0.1 0.05 16.56 21.23 0.02 0.1 132.85z"/>
     </g>
    </g>
   </g>
  </g>
 </g>
</svg>
