<?xml version="1.0" encoding="UTF-8"?>
<!DOCTYPE svg PUBLIC "-//W3C//DTD SVG 1.1//EN" "http://www.w3.org/Graphics/SVG/1.1/DTD/svg11.dtd">
<!-- Creator: CorelDRAW 2017 -->
<svg xmlns="http://www.w3.org/2000/svg" xml:space="preserve" width="32px" height="31px" version="1.1" style="shape-rendering:geometricPrecision; text-rendering:geometricPrecision; image-rendering:optimizeQuality; fill-rule:evenodd; clip-rule:evenodd"
viewBox="0 0 0.6 0.58"
 xmlns:xlink="http://www.w3.org/1999/xlink">
 <defs>
  <style type="text/css">
   <![CDATA[
    .fil0 {fill:white}
    .fil1 {fill:#FFCC29;fill-rule:nonzero}
   ]]>
  </style>
 </defs>
 <g id="Camada_x0020_1">
  <metadata id="CorelCorpID_0Corel-Layer"/>
  <g id="_2892366398848">
   <path class="fil0" d="M0.19 0.16l0.06 -0.13c0.01,-0.02 0.03,-0.03 0.05,-0.03 0.02,0 0.04,0.01 0.05,0.03l0.06 0.13 0.14 0.02c0.03,0 0.04,0.02 0.05,0.04 0.01,0.02 0,0.04 -0.01,0.05l-0.11 0.1 0.03 0.14c0,0.02 -0.01,0.04 -0.02,0.06 -0.02,0.01 -0.04,0.01 -0.06,0l-0.13 -0.06 -0.12 0.06c-0.02,0.01 -0.05,0.01 -0.06,0 -0.02,-0.02 -0.03,-0.04 -0.03,-0.06l0.03 -0.14 -0.1 -0.1c-0.02,-0.01 -0.02,-0.03 -0.02,-0.05 0.01,-0.02 0.03,-0.04 0.05,-0.04l0.14 -0.02z"/>
   <polygon class="fil1" points="0.06,0.23 0.23,0.21 0.3,0.06 0.38,0.21 0.55,0.23 0.42,0.35 0.45,0.52 0.3,0.44 0.15,0.52 0.18,0.35 "/>
  </g>
 </g>
</svg>
