<?xml version="1.0" encoding="UTF-8"?>
<!DOCTYPE svg PUBLIC "-//W3C//DTD SVG 1.1//EN" "http://www.w3.org/Graphics/SVG/1.1/DTD/svg11.dtd">
<!-- Creator: CorelDRAW 2017 -->
<svg xmlns="http://www.w3.org/2000/svg" xml:space="preserve" width="26px" height="19px" version="1.1" style="shape-rendering:geometricPrecision; text-rendering:geometricPrecision; image-rendering:optimizeQuality; fill-rule:evenodd; clip-rule:evenodd"
viewBox="0 0 0.89 0.65"
 xmlns:xlink="http://www.w3.org/1999/xlink">
 <defs>
  <style type="text/css">
   <![CDATA[
    .fil0 {fill:white}
   ]]>
  </style>
 </defs>
 <g id="Camada_x0020_1">
  <metadata id="CorelCorpID_0Corel-Layer"/>
  <g id="_2892597716992">
   <path class="fil0" d="M0.31 0.03c-0.06,-0.03 -0.15,-0.04 -0.22,-0.02l-0.01 0.01 0 0.51c0.12,-0.02 0.21,-0.01 0.3,0.06 0.02,0.01 0.06,0.05 0.07,0.06 0.01,-0.08 0,-0.28 0,-0.39l0 -0.09c0,-0.06 -0.1,-0.13 -0.14,-0.14z"/>
   <path class="fil0" d="M0 0.3l0 0.02 0 0.03 0 0.05 0 0.22c0.11,-0.02 0.23,-0.01 0.34,0.01 0.03,0 0.06,0.02 0.09,0.02 -0.02,-0.01 -0.03,-0.02 -0.07,-0.05 -0.06,-0.03 -0.12,-0.05 -0.19,-0.05 -0.04,0 -0.08,0.01 -0.11,0.01l0 -0.51c-0.03,-0.01 -0.03,0 -0.06,0l0 0.25z"/>
   <path class="fil0" d="M0.58 0.03c0.06,-0.03 0.15,-0.04 0.22,-0.02l0.01 0.01 0 0.51c-0.12,-0.02 -0.21,-0.01 -0.3,0.06 -0.02,0.01 -0.06,0.05 -0.07,0.06 -0.01,-0.08 0,-0.28 0,-0.39l0 -0.09c0,-0.06 0.1,-0.13 0.14,-0.14z"/>
   <path class="fil0" d="M0.89 0.3l0 0.02 0 0.03 0 0.05 0 0.22c-0.11,-0.02 -0.23,-0.01 -0.34,0.01 -0.03,0 -0.06,0.02 -0.09,0.02 0.02,-0.01 0.03,-0.02 0.07,-0.05 0.07,-0.03 0.12,-0.05 0.19,-0.05 0.04,0 0.08,0.01 0.11,0.01l0 -0.51c0.03,-0.01 0.03,0 0.06,0l0 0.25z"/>
  </g>
 </g>
</svg>
