<?xml version="1.0" encoding="UTF-8"?>
<!DOCTYPE svg PUBLIC "-//W3C//DTD SVG 1.1//EN" "http://www.w3.org/Graphics/SVG/1.1/DTD/svg11.dtd">
<!-- Creator: CorelDRAW 2017 -->
<svg xmlns="http://www.w3.org/2000/svg" xml:space="preserve" width="23px" height="23px" version="1.1" style="shape-rendering:geometricPrecision; text-rendering:geometricPrecision; image-rendering:optimizeQuality; fill-rule:evenodd; clip-rule:evenodd"
viewBox="0 0 0.69 0.69"
 xmlns:xlink="http://www.w3.org/1999/xlink">
 <defs>
  <style type="text/css">
   <![CDATA[
    .fil0 {fill:#FEFEFE}
   ]]>
  </style>
 </defs>
 <g id="Camada_x0020_1">
  <metadata id="CorelCorpID_0Corel-Layer"/>
  <path class="fil0" d="M0.31 0.19c0.1,-0.02 0.17,0.05 0.19,0.13 0.02,0.09 -0.05,0.17 -0.13,0.18 -0.09,0.02 -0.17,-0.05 -0.18,-0.13 -0.02,-0.09 0.05,-0.17 0.12,-0.18zm0.37 0.06c0,-0.02 -0.02,-0.07 -0.03,-0.09 -0.02,-0.02 -0.06,0.02 -0.1,-0.01 -0.02,-0.01 -0.05,-0.04 -0.04,-0.08 0.01,-0.03 0.02,-0.04 -0.05,-0.06 -0.06,-0.02 -0.04,0 -0.07,0.03 -0.01,0.02 -0.05,0.03 -0.09,0.02 -0.05,-0.02 -0.03,-0.06 -0.07,-0.05 -0.02,0 -0.06,0.02 -0.08,0.04 0,0.01 0.04,0.06 -0.01,0.1 -0.04,0.05 -0.08,0.01 -0.1,0.02 -0.02,0.01 -0.05,0.08 -0.04,0.1 0.01,0.01 0.06,0.02 0.06,0.08 0.01,0.06 -0.05,0.08 -0.05,0.09 -0.01,0.02 0.02,0.08 0.03,0.09 0.03,0.01 0.05,-0.02 0.09,0 0.02,0.01 0.04,0.03 0.05,0.06 0,0.04 -0.03,0.06 0.01,0.07 0.1,0.06 0.07,0.01 0.11,-0.02 0.03,-0.03 0.1,-0.02 0.12,0.02 0.01,0.03 0.02,0.03 0.07,0.01 0.02,-0.01 0.03,-0.01 0.04,-0.03 0,-0.01 -0.04,-0.09 0.04,-0.12 0.07,-0.03 0.07,0.05 0.11,-0.05 0.03,-0.09 -0.03,-0.04 -0.05,-0.11 -0.03,-0.07 0.03,-0.09 0.05,-0.11z"/>
 </g>
</svg>
