<?xml version="1.0" encoding="UTF-8"?>
<!DOCTYPE svg PUBLIC "-//W3C//DTD SVG 1.1//EN" "http://www.w3.org/Graphics/SVG/1.1/DTD/svg11.dtd">
<!-- Creator: CorelDRAW 2017 -->
<svg xmlns="http://www.w3.org/2000/svg" xml:space="preserve" width="38px" height="42px" version="1.1" style="shape-rendering:geometricPrecision; text-rendering:geometricPrecision; image-rendering:optimizeQuality; fill-rule:evenodd; clip-rule:evenodd"
viewBox="0 0 1.21 1.35"
 xmlns:xlink="http://www.w3.org/1999/xlink">
 <defs>
  <style type="text/css">
   <![CDATA[
    .fil0 {fill:white}
   ]]>
  </style>
 </defs>
 <g id="Camada_x0020_1">
  <metadata id="CorelCorpID_0Corel-Layer"/>
  <g id="_2892548490816">
   <path class="fil0" d="M0.5 1.27c-0.09,0 -0.34,-0.01 -0.43,-0.05 -0.07,-0.02 -0.08,-0.08 -0.07,-0.14 0.02,-0.17 0.15,-0.28 0.29,-0.35 0.03,-0.01 0.06,-0.03 0.08,-0.04 0.01,0 0.03,-0.01 0.04,-0.01 0,0 0,0 0,-0.01 -0.01,-0.01 -0.02,-0.03 -0.03,-0.05 0,-0.01 -0.01,-0.02 -0.01,-0.03 -0.01,-0.01 -0.02,-0.02 -0.03,-0.04 -0.02,-0.03 -0.03,-0.06 -0.04,-0.09 0,-0.02 0,-0.05 0,-0.07 0,-0.02 0.01,-0.04 0.03,-0.05 0,-0.09 -0.01,-0.17 0.05,-0.24 0.06,-0.07 0.13,-0.1 0.22,-0.1 0.1,0 0.17,0.03 0.23,0.1 0.06,0.07 0.05,0.15 0.05,0.24 0.02,0.01 0.02,0.03 0.02,0.05 0.01,0.02 0.01,0.05 0,0.07 0,0.03 -0.02,0.06 -0.03,0.09 -0.01,0.02 -0.03,0.03 -0.04,0.04 0,0.01 0,0.02 0,0.03 -0.01,0.02 -0.02,0.04 -0.03,0.05 0,0.01 0,0.01 0,0.01 0.01,0 0.02,0.01 0.03,0.01 0.03,0.01 0.06,0.03 0.08,0.04 0.15,0.07 0.27,0.18 0.29,0.35 0.01,0.06 0,0.12 -0.07,0.14 -0.08,0.04 -0.33,0.05 -0.42,0.05l-0.01 0c0,0.05 -0.04,0.08 -0.09,0.08 -0.05,0 -0.09,-0.03 -0.09,-0.08l-0.02 0zm0.25 -0.2l0 0c0,0.02 -0.02,0.05 -0.05,0.05l-0.04 0 0 0.14c0,0.03 -0.02,0.05 -0.05,0.05l0 0c-0.03,0 -0.05,-0.02 -0.05,-0.05l0 -0.14 -0.05 0c-0.03,0 -0.05,-0.03 -0.05,-0.05l0 0c0,-0.03 0.02,-0.06 0.05,-0.06l0.05 0 0 -0.04c0,-0.03 0.02,-0.05 0.05,-0.05l0 0c0.03,0 0.05,0.02 0.05,0.05l0 0.04 0.04 0c0.03,0 0.05,0.03 0.05,0.06zm-0.05 0.09l0 0.07 0.01 0c0.19,-0.01 0.36,-0.02 0.4,-0.05 0.06,-0.01 0.06,-0.05 0.05,-0.1 -0.02,-0.15 -0.13,-0.25 -0.27,-0.31 -0.02,-0.02 -0.05,-0.03 -0.07,-0.04 -0.03,-0.01 -0.06,-0.03 -0.08,-0.04l0.02 -0.04c0.03,-0.04 0.03,-0.07 0.04,-0.08 0.02,-0.03 0.05,-0.05 0.06,-0.12 0,-0.01 0,-0.04 0,-0.05 0,-0.03 0,-0.03 -0.02,-0.04 -0.01,-0.09 0.01,-0.17 -0.04,-0.23 -0.05,-0.07 -0.11,-0.09 -0.2,-0.09 -0.08,0 -0.14,0.02 -0.19,0.09 -0.05,0.06 -0.04,0.14 -0.04,0.23 -0.02,0.01 -0.02,0.01 -0.03,0.04 0,0.01 0,0.04 0.01,0.05 0.01,0.07 0.04,0.09 0.06,0.12 0.01,0.01 0.01,0.04 0.03,0.08l0.03 0.04c-0.02,0.01 -0.06,0.03 -0.08,0.04 -0.03,0.01 -0.05,0.02 -0.08,0.04 -0.13,0.06 -0.25,0.16 -0.27,0.31 0,0.05 0,0.09 0.05,0.1 0.05,0.03 0.22,0.04 0.41,0.05l0.01 0 0 -0.07 0 0c-0.05,0 -0.09,-0.04 -0.09,-0.09 0,-0.06 0.04,-0.1 0.09,-0.1l0 0 0 0c0,-0.05 0.05,-0.09 0.1,-0.09 0.05,0 0.09,0.04 0.09,0.09l0 0 0 0c0.05,0 0.09,0.04 0.09,0.1 0,0.05 -0.04,0.09 -0.09,0.09l0 0z"/>
   <path class="fil0" d="M0.55 0.71c0.04,0.01 0.07,0.01 0.11,0 0,0.02 0,0.04 0,0.06 -0.04,0.01 -0.07,0.01 -0.11,0 0,-0.02 0,-0.04 0,-0.06z"/>
  </g>
 </g>
</svg>
