<?xml version="1.0" encoding="UTF-8"?>
<!DOCTYPE svg PUBLIC "-//W3C//DTD SVG 1.1//EN" "http://www.w3.org/Graphics/SVG/1.1/DTD/svg11.dtd">
<!-- Creator: CorelDRAW 2017 -->
<svg xmlns="http://www.w3.org/2000/svg" xml:space="preserve" width="30px" height="38px" version="1.1" style="shape-rendering:geometricPrecision; text-rendering:geometricPrecision; image-rendering:optimizeQuality; fill-rule:evenodd; clip-rule:evenodd"
viewBox="0 0 0.76 0.97"
 xmlns:xlink="http://www.w3.org/1999/xlink">
 <defs>
  <style type="text/css">
   <![CDATA[
    .fil0 {fill:white}
   ]]>
  </style>
 </defs>
 <g id="Camada_x0020_1">
  <metadata id="CorelCorpID_0Corel-Layer"/>
  <path class="fil0" d="M0.74 0.84l-0.01 0 -0.02 -0.06 0 -0.05 0 -0.05 0 -0.08c0,0 0,0 0,0 0,0 0,0 0,0l0 -0.09 0 -0.03 0 -0.08c0,-0.05 -0.02,-0.1 -0.05,-0.13l-0.18 -0.24c-0.01,-0.02 -0.03,-0.03 -0.06,-0.03 -0.01,0 -0.03,0.01 -0.04,0.02 -0.01,-0.01 -0.02,-0.02 -0.04,-0.02 -0.02,0 -0.05,0.01 -0.06,0.03l-0.18 0.24c-0.03,0.03 -0.04,0.08 -0.04,0.13l0 0.08 0 0.03 0 0.09c0,0 0,0 0,0 0,0 0,0 0,0l0 0.08 0 0.05 0 0.05 -0.02 0.06 -0.02 0c-0.01,0 -0.02,0.01 -0.02,0.02l0 0.09c0,0.01 0.01,0.02 0.02,0.02l0.36 0 0.01 0 0.35 0c0.02,0 0.02,-0.01 0.02,-0.02l0 -0.09c0,-0.01 0,-0.02 -0.02,-0.02zm-0.36 -0.72l0.12 0.2c-0.04,0 -0.07,0.03 -0.07,0.07l0 0.12 -0.03 0.04c-0.01,0.01 -0.01,0.02 -0.02,0.04 0,-0.02 -0.01,-0.03 -0.02,-0.04l-0.03 -0.04 0 -0.12c0,-0.04 -0.03,-0.07 -0.07,-0.07l0.12 -0.2zm0 0.66c0.01,0.02 0.02,0.04 0.04,0.06l-0.03 0 -0.01 0c0,0 0,0 0,0l0 0 -0.04 0c0.02,-0.02 0.03,-0.04 0.04,-0.06zm-0.29 -0.1l0 0.05 0 0.05c0,0.01 0,0.01 0,0.01l-0.01 0.05 0.21 0 0.01 -0.01c0.04,-0.04 0.06,-0.09 0.06,-0.15 0,-0.04 -0.01,-0.08 -0.03,-0.11l-0.03 -0.05c0,0 0,-0.01 0,-0.01l0 -0.12c0,-0.02 -0.02,-0.03 -0.04,-0.03 -0.01,0 -0.02,0 -0.03,0.01l0 0.01c0,0 0,0.01 0,0.01l0 0.23c0,0.01 -0.01,0.02 -0.02,0.02 -0.01,0 -0.02,-0.01 -0.02,-0.02l0 -0.23c0,-0.01 0,-0.02 0.01,-0.03 0,0 0,0 0,0 0,0 0,-0.01 0,-0.01l0.16 -0.26c0,0 0,0 0,0 0.01,-0.01 0.01,-0.03 0,-0.04 0,-0.01 -0.01,-0.01 -0.02,-0.01 -0.01,0 -0.02,0 -0.03,0.01l-0.18 0.24c-0.02,0.03 -0.04,0.07 -0.04,0.11l0 0.08 0 0.03 0 0.17zm-0.05 0.25l0.32 0 0 -0.05 -0.31 0c0,0 0,0 0,0 0,0 0,0 0,0l-0.01 0 0 0.05zm0.63 -0.25l0 0.05 0 0.05c0,0.01 0,0.01 0,0.01l0.02 0.05 -0.22 0 -0.01 -0.01c-0.04,-0.04 -0.06,-0.09 -0.06,-0.15 0,-0.04 0.01,-0.08 0.03,-0.11l0.03 -0.05c0.01,0 0.01,-0.01 0.01,-0.01l0 -0.12c0,-0.02 0.01,-0.03 0.03,-0.03 0.01,0 0.03,0 0.03,0.01l0 0.01c0.01,0 0.01,0.01 0.01,0.01l0 0.23c0,0.01 0.01,0.02 0.02,0.02 0.01,0 0.02,-0.01 0.02,-0.02l0 -0.23c0,-0.01 -0.01,-0.02 -0.01,-0.03 0,0 0,0 0,0 0,0 -0.01,-0.01 -0.01,-0.01l-0.15 -0.26c0,0 0,0 0,0 -0.01,-0.01 -0.01,-0.03 -0.01,-0.04 0.01,-0.01 0.02,-0.01 0.03,-0.01 0.01,0 0.02,0 0.02,0.01l0.18 0.24c0.03,0.03 0.04,0.07 0.04,0.11l0 0.08 0 0.03 0 0.17zm0.06 0.25l-0.33 0 0 -0.05 0.31 0c0,0 0,0 0,0 0,0 0,0 0,0l0.02 0 0 0.05z"/>
 </g>
</svg>
