<?xml version="1.0" encoding="UTF-8"?>
<!DOCTYPE svg PUBLIC "-//W3C//DTD SVG 1.1//EN" "http://www.w3.org/Graphics/SVG/1.1/DTD/svg11.dtd">
<!-- Creator: CorelDRAW 2017 -->
<svg xmlns="http://www.w3.org/2000/svg" xml:space="preserve" width="36px" height="38px" version="1.1" style="shape-rendering:geometricPrecision; text-rendering:geometricPrecision; image-rendering:optimizeQuality; fill-rule:evenodd; clip-rule:evenodd"
viewBox="0 0 1.11 1.15"
 xmlns:xlink="http://www.w3.org/1999/xlink">
 <defs>
  <style type="text/css">
   <![CDATA[
    .fil0 {fill:white}
   ]]>
  </style>
 </defs>
 <g id="Camada_x0020_1">
  <metadata id="CorelCorpID_0Corel-Layer"/>
  <g id="_2856813893056">
   <path class="fil0" d="M0.51 1.05c0,-0.04 0,-0.1 0,-0.14 0,-0.04 0,-0.07 0.02,-0.09 0.01,-0.01 0.02,-0.01 0.02,-0.01 0.01,0 0.02,0 0.03,0.01 0.02,0.02 0.01,0.05 0.01,0.09 0,0.04 0.01,0.1 0.01,0.14l0.05 0c0,-0.06 0,-0.13 0,-0.19 0,-0.03 -0.01,-0.06 -0.03,-0.07 -0.02,-0.02 -0.04,-0.03 -0.06,-0.04l0 0 -0.01 0 0 0 0 0c-0.02,0.01 -0.04,0.02 -0.06,0.04 -0.02,0.01 -0.03,0.04 -0.03,0.07 0,0.06 0,0.13 0,0.19l0.05 0z"/>
   <polygon class="fil0" points="0.16,1.15 0.95,1.15 0.95,1.1 0.16,1.1 "/>
   <path class="fil0" d="M0.48 0.53l0.05 0c0,-0.04 0,-0.08 0.01,-0.11 0,-0.01 0,-0.02 0.01,-0.02 0.02,0 0.02,0.01 0.02,0.02 0.01,0.03 0.01,0.07 0.01,0.11l0.05 0c0,-0.02 0,-0.1 -0.01,-0.13 0,-0.03 -0.03,-0.05 -0.06,-0.05l0 0c0,0 -0.01,0 -0.01,0 0,0 0,0 0,0l0 0c-0.03,0 -0.06,0.02 -0.06,0.05 -0.01,0.03 -0.01,0.11 -0.01,0.13z"/>
   <path class="fil0" d="M0.07 1.15l0.05 0 0 -0.4 0.17 0 0 0.3 0.05 0 0 -0.56 -0.06 -0.02c0.02,-0.02 0.27,-0.26 0.27,-0.26l0 0 0.01 0c0,0 0.25,0.24 0.27,0.26l-0.06 0.02 0 0.56 0.05 0 0 -0.3 0.17 0 0 0.4 0.05 0 0 -0.4 0.07 0 0 -0.06 -0.29 0 0 -0.16c0.01,0 0.09,-0.03 0.11,-0.04 -0.03,-0.03 -0.3,-0.26 -0.35,-0.32 0,-0.03 0,-0.04 0,-0.08l0.05 0 -0.01 -0.05 -0.04 0 0 -0.04 0 0 0 0c0,0 -0.01,0 -0.03,0 -0.01,0 -0.02,0 -0.02,0l0 0 0 0 0 0.04 -0.05 0 0 0.05 0.05 0c0,0.04 0,0.05 0,0.08 -0.05,0.06 -0.32,0.29 -0.35,0.32 0.02,0.01 0.1,0.04 0.11,0.04l0 0.16 -0.29 0 0 0.06 0.07 0 0 0.4z"/>
  </g>
 </g>
</svg>
