<?xml version="1.0" encoding="UTF-8"?>
<!DOCTYPE svg PUBLIC "-//W3C//DTD SVG 1.1//EN" "http://www.w3.org/Graphics/SVG/1.1/DTD/svg11.dtd">
<!-- Creator: CorelDRAW 2017 -->
<svg xmlns="http://www.w3.org/2000/svg" xml:space="preserve" width="22px" height="25px" version="1.1" style="shape-rendering:geometricPrecision; text-rendering:geometricPrecision; image-rendering:optimizeQuality; fill-rule:evenodd; clip-rule:evenodd"
viewBox="0 0 0.64 0.71"
 xmlns:xlink="http://www.w3.org/1999/xlink">
 <defs>
  <style type="text/css">
   <![CDATA[
    .fil0 {fill:white}
   ]]>
  </style>
 </defs>
 <g id="Camada_x0020_1">
  <metadata id="CorelCorpID_0Corel-Layer"/>
  <g id="_2892905274448">
   <path class="fil0" d="M0.12 0.36l0.02 0 0.02 0 0.02 0 0.03 0 0.24 0c0.03,0 0.05,0 0.07,0l0.01 0 0 0c0.02,0 0.03,0.02 0.03,0.04 0,0.04 0,0.21 -0.01,0.22 0,0.01 -0.01,0.02 -0.01,0.02 -0.01,0.01 -0.08,0 -0.1,0l-0.33 0c-0.02,0 -0.03,-0.01 -0.03,-0.03 0,-0.06 0,-0.13 0,-0.19 0,-0.01 0,-0.03 0,-0.04 0,-0.01 0.01,-0.02 0.03,-0.02l0.01 0zm-0.07 -0.23c-0.01,0 -0.03,0.01 -0.04,0.02 -0.01,0.02 -0.01,0.02 -0.01,0.05l0 0.41c0,0.04 -0.01,0.07 0.03,0.09 0.02,0.01 0.03,0.01 0.05,0.01l0.48 0c0.02,0 0.03,0 0.05,-0.01 0.03,-0.02 0.02,-0.06 0.02,-0.09 0,-0.02 0,-0.04 0,-0.06 0.01,-0.04 0,-0.08 0,-0.12l0 -0.24c0,-0.03 -0.02,-0.06 -0.05,-0.06 0,0.04 0,0.06 -0.02,0.09 -0.03,0.05 -0.1,0.05 -0.14,0 -0.02,-0.02 -0.01,-0.05 -0.02,-0.09l-0.17 0c-0.01,0.04 0,0.06 -0.02,0.09 -0.03,0.05 -0.11,0.05 -0.14,0 -0.02,-0.03 -0.02,-0.05 -0.02,-0.09z"/>
   <path class="fil0" d="M0.49 0c-0.03,0 -0.04,0.02 -0.05,0.04 0,0.01 0,0.06 0,0.08 0,0.03 -0.01,0.05 0.01,0.07 0.02,0.04 0.08,0.04 0.1,-0.01 0,-0.01 0,-0.06 0,-0.08 0,-0.03 0.01,-0.05 -0.01,-0.07 -0.01,-0.02 -0.03,-0.03 -0.05,-0.03z"/>
   <path class="fil0" d="M0.13 0c-0.02,0 -0.04,0.02 -0.05,0.04 0,0.01 0,0.06 0,0.08 0,0.03 0,0.05 0.01,0.07 0.02,0.04 0.08,0.04 0.1,-0.01 0.01,-0.01 0,-0.06 0,-0.08 0,-0.02 0.01,-0.05 0,-0.07 -0.01,-0.02 -0.03,-0.03 -0.06,-0.03z"/>
   <g>
    <polygon class="fil0" points="0.41,0.59 0.41,0.6 0.48,0.6 0.48,0.6 0.48,0.52 0.48,0.52 0.41,0.52 "/>
    <polygon class="fil0" points="0.41,0.48 0.48,0.48 0.48,0.4 0.41,0.4 "/>
    <polygon class="fil0" points="0.15,0.6 0.23,0.6 0.23,0.52 0.15,0.52 "/>
    <polygon class="fil0" points="0.15,0.48 0.23,0.48 0.23,0.4 0.15,0.4 "/>
    <polygon class="fil0" points="0.28,0.48 0.35,0.48 0.35,0.4 0.28,0.4 "/>
    <path class="fil0" d="M0.28 0.6c0,0 0.07,0 0.07,0 0,0 0,0 0,0 0,0 0,0 0,0l0 -0.08 -0.07 0 0 0.08z"/>
   </g>
  </g>
 </g>
</svg>
