<?xml version="1.0" encoding="UTF-8"?>
<!DOCTYPE svg PUBLIC "-//W3C//DTD SVG 1.1//EN" "http://www.w3.org/Graphics/SVG/1.1/DTD/svg11.dtd">
<!-- Creator: CorelDRAW 2017 -->
<svg xmlns="http://www.w3.org/2000/svg" xml:space="preserve" width="23px" height="21px" version="1.1" style="shape-rendering:geometricPrecision; text-rendering:geometricPrecision; image-rendering:optimizeQuality; fill-rule:evenodd; clip-rule:evenodd"
viewBox="0 0 0.69 0.62"
 xmlns:xlink="http://www.w3.org/1999/xlink">
 <defs>
  <style type="text/css">
   <![CDATA[
    .fil0 {fill:#FEFEFE}
   ]]>
  </style>
 </defs>
 <g id="Camada_x0020_1">
  <metadata id="CorelCorpID_0Corel-Layer"/>
  <g id="_2892554198336">
   <path class="fil0" d="M0.35 0l0 0c0,0.02 0,0.03 0,0.05l0 0.04 -0.01 0.01c0,0.01 0,0.02 0,0.03 -0.01,0.03 -0.02,0.07 -0.04,0.09 0,0.01 -0.01,0.02 -0.02,0.02 0,0.01 0,0.01 -0.01,0.01 0,0.01 0,0.01 0,0.01 0,0 0,0 -0.01,0 0,0.01 0,0.01 0,0.01 -0.01,0.01 -0.03,0.02 -0.04,0.03l0 0.01 0 0.2 0 0.08c0,0 0.01,0 0.01,0.01 0.01,0 0.01,0 0.02,0 0.02,0.01 0.02,0.02 0.03,0.02l0.19 0c0.02,0 0.08,0 0.09,0 0.01,0 0.01,0 0.02,0 0,0 0.01,-0.01 0.01,-0.01 0,0 0.01,0 0.01,0 0,-0.01 0.01,-0.01 0.01,-0.01 0,-0.01 0.01,-0.01 0.01,-0.02 0,0 0,-0.01 0,-0.01l0.01 -0.02c0,-0.01 -0.01,-0.02 0.01,-0.02 0,0 0,-0.01 0.01,-0.01 0,0 0,-0.01 0,-0.01 0.01,-0.02 0.01,-0.03 0.01,-0.05 0,-0.01 -0.01,-0.01 0,-0.02 0,0 0.01,0 0.02,-0.01l0 -0.01 0.01 -0.01c0,-0.01 0,-0.01 0,-0.02 0,-0.01 -0.01,-0.02 -0.01,-0.03 0,0 -0.01,-0.01 0,-0.02 0.01,-0.01 0.02,-0.04 0.01,-0.06 0,-0.02 -0.03,-0.03 -0.05,-0.04 -0.04,-0.01 -0.1,-0.01 -0.15,-0.01l-0.04 0c-0.01,0 -0.01,0 -0.01,-0.01 0,-0.01 0,-0.02 0,-0.02 0.01,-0.02 0.01,-0.04 0.01,-0.05l0 -0.02 0 -0.01c0,0 0,-0.01 0,-0.01 0,0 0,0 0,0l0 -0.01c0,0 0,-0.01 0,-0.01 0,0 0,-0.01 0,-0.01 -0.01,-0.02 -0.01,-0.02 -0.01,-0.03 -0.01,0 -0.01,-0.01 -0.01,-0.02 -0.01,-0.01 -0.02,-0.01 -0.02,-0.02 -0.01,0 -0.02,0 -0.02,-0.01l-0.02 0 -0.01 0 -0.01 0z"/>
   <path class="fil0" d="M0.2 0.57l0 -0.02 0 -0.01c0,-0.06 0,-0.14 0,-0.2 0,-0.01 0,-0.04 0,-0.05 -0.01,-0.01 -0.03,-0.01 -0.04,-0.01 -0.04,0 -0.07,0 -0.1,0 -0.01,0 -0.03,0 -0.04,0 -0.01,0.01 -0.02,0.01 -0.02,0.02 0,0.01 0,0.07 0,0.08l0 0.2c0,0.04 0.02,0.04 0.05,0.04 0.01,0 0.02,0 0.04,0 0.02,0 0.05,0 0.08,0 0.01,0 0.02,-0.01 0.03,-0.02 0,0 0,-0.02 0,-0.03z"/>
  </g>
 </g>
</svg>
