<?xml version="1.0" encoding="UTF-8"?>
<!DOCTYPE svg PUBLIC "-//W3C//DTD SVG 1.1//EN" "http://www.w3.org/Graphics/SVG/1.1/DTD/svg11.dtd">
<!-- Creator: CorelDRAW 2017 -->
<svg xmlns="http://www.w3.org/2000/svg" xml:space="preserve" width="38px" height="44px" version="1.1" style="shape-rendering:geometricPrecision; text-rendering:geometricPrecision; image-rendering:optimizeQuality; fill-rule:evenodd; clip-rule:evenodd"
viewBox="0 0 0.86 0.99"
 xmlns:xlink="http://www.w3.org/1999/xlink">
 <defs>
  <style type="text/css">
   <![CDATA[
    .fil1 {fill:#33CC66}
    .fil0 {fill:white}
   ]]>
  </style>
 </defs>
 <g id="Camada_x0020_1">
  <metadata id="CorelCorpID_0Corel-Layer"/>
  <g id="_2856646020880">
   <path class="fil0" d="M0.43 0c0.24,0 0.43,0.19 0.43,0.43 0,0.27 -0.25,0.38 -0.42,0.55 -0.01,0.01 -0.01,0.01 -0.02,0 -0.17,-0.17 -0.42,-0.28 -0.42,-0.55 0,-0.24 0.19,-0.43 0.43,-0.43z"/>
   <circle class="fil1" cx="0.43" cy="0.43" r="0.36"/>
   <g>
    <path class="fil0" d="M0.41 0.6c0,-0.02 0,-0.04 0,-0.06 0,-0.02 0,-0.04 0.01,-0.05 0,0 0.01,0 0.01,0 0,0 0.01,0 0.01,0 0.01,0.01 0.01,0.03 0.01,0.05 0,0.02 0,0.04 0,0.06l0.02 0c0,-0.02 0,-0.06 0,-0.09 0,-0.01 0,-0.02 -0.01,-0.03 -0.01,-0.01 -0.02,-0.01 -0.03,-0.01l0 0 0 0 0 0 0 0c-0.01,0 -0.02,0 -0.03,0.01 -0.01,0.01 -0.01,0.02 -0.01,0.03 0,0.03 0,0.07 0,0.09l0.02 0z"/>
    <polygon class="fil0" points="0.25,0.65 0.61,0.65 0.61,0.63 0.25,0.63 "/>
    <path class="fil0" d="M0.4 0.36l0.02 0c0,-0.02 0,-0.04 0,-0.05 0,-0.01 0,-0.01 0.01,-0.01 0,0 0.01,0 0.01,0.01 0,0.01 0,0.03 0,0.05l0.02 0c0,-0.01 0,-0.05 0,-0.06 0,-0.01 -0.02,-0.02 -0.03,-0.02l0 0c0,0 0,0 0,0 0,0 0,0 0,0l0 0c-0.02,0 -0.03,0.01 -0.03,0.02 0,0.01 0,0.05 0,0.06z"/>
    <path class="fil0" d="M0.2 0.65l0.03 0 0 -0.19 0.08 0 0 0.14 0.02 0 0 -0.26 -0.03 -0.01c0.01,-0.01 0.13,-0.12 0.13,-0.12l0 0 0 0c0,0 0.12,0.11 0.13,0.12l-0.03 0.01 0 0.26 0.02 0 0 -0.14 0.08 0 0 0.19 0.03 0 0 -0.19 0.03 0 0 -0.02 -0.14 0 0 -0.08c0.01,0 0.05,-0.01 0.05,-0.02 -0.01,-0.01 -0.13,-0.12 -0.16,-0.15 0,-0.01 0,-0.02 0,-0.03l0.02 0 0 -0.03 -0.02 0 0 -0.02 0 0 0 0c0,0 0,0 -0.01,0 -0.01,0 -0.01,0 -0.01,0l0 0 0 0 0 0.02 -0.02 0 0 0.03 0.02 0c0,0.01 0,0.02 0,0.03 -0.03,0.03 -0.15,0.14 -0.16,0.15 0,0.01 0.04,0.02 0.05,0.02l0 0.08 -0.14 0 0 0.02 0.03 0 0 0.19z"/>
   </g>
  </g>
 </g>
</svg>
